<?xml version="1.0" encoding="UTF-8"?>
<svg id="Layer_1" data-name="Layer 1" xmlns="http://www.w3.org/2000/svg" viewBox="0 0 425.2 229.7">
  <defs>
    <style>
      .cls-1 {
        fill: #202020;
        stroke-width: 0px;
      }
    </style>
  </defs>
  <path class="cls-1" d="M336.6,111.7c-4.6-3-10.5-5.8-15.7-7.2-3.4-.6-6.4-1-9.8-1-3,.2-8,.6-10.8,1.8-4.3.8-8.3,2.4-12.1,4.2-2.8,2.2-12.7,13.5-14.7,16.9-.6,1.6-3.4,8.4-4.2,10l-4.4,7.4h-.4c-2.6-1-4.4-1.6-5.8-2.4-1-.6-2-1-2.8-1.8-.4-.6-1-1-1.2-1.6-1.8-2.6-1.8-5.6-1.8-9v-2.7h-18.2l-.2,12.5c-5.8,2.2-11.7,3.8-17.5,5.4v.13c-17.65,5.37-30.24,5.97-48.9,5.97-8,0-34.4-2.6-41.2-6.2v-.1c-6.1-2.8-9.7-4.6-13.5-7.4l-.4-8.6.9-10.7-.6-20.9.6-10.6-.6-11.3.2-9.8-18.9-1-.2.6-.4,10.6,1,21.5v12l-.8,10.6v10.9l.4,10.4.2,11.9-.8,9.8c-2,2.4-6.2,4.2-10.6,5.4-4.1,1-8.7,1-13.3,1.6-5.5-.2-10.1-1.6-13.9-4.2-2.2-2.3-4-6.1-4.2-11.9l2.3-11.2,1.6-10.4-16.1-3c-.6,2.4-1.4,4.4-2.2,7.8-1,4.3-2.4,7.1-3,11.5-.6,4.3,0,8.7-.4,12.1-.6,4.9.4,8.1,1.4,12.9,1.2,3.4,2.2,6.6,3.8,9.4,5,8.9,18.3,13.1,27.7,13.1,6.8,0,19.5-5,24.9-9,3.4-2.6,6.6-5.6,9.2-8.8,3.6-2.8,4.8-6.4,6.6-10,.8-1.6,1.6-3,2.4-4.4.8.8,1.8,1.4,3,2.2h.1v.2c11.6,8.4,37.3,10.2,52.2,10.2,21.3,0,49.8-4,67.7-16.5v-.18c1.74-1.23,2.92-3.78,3.7-6.92,2,2.8,3.4,6,5.4,8,3,3,5.2,5,9.2,6.6,1.4.8,3,1.4,4.8,1.8,1.8.6,3.6,1,5.4,1.4,3.2.2,6.6.8,9.4,1h16.5c4.9,0,9.1-.6,12.9-1.2,5.7-.2,10.9-.8,16.1-3,6-1.8,12.5-3.8,17.7-7.6,5.1-2.4,8.7-9.7,10.9-14.7,1.4-3.2,1.4-6.8,2-10.2-.6-8.4-2-18.1-10.6-22.3ZM326.5,140.8c-3.7.6-6.7,2.2-12.7,2.8-5,.6-10.7.6-18.7,1h-1.2c-3.4,0-7-.2-10.4-.2l-1.6.2c1.2-1.8,2.4-3.4,3.6-5.2l1.2-2.4c1-2,2-4,3.4-6.6,3.9-1,8.1-1.4,11.5-1.8,2.6-.2,4.6-.4,6-.6,5.9.8,11.3,1.4,15.1,3.8,4,1.6,6.6,3.8,9.6,6.8-1.8,1-3.6,1.6-5.8,2.2Z"/>
  <path class="cls-1" d="M380.5,76.4h-19.5l-.4,9.4v10.8c-.2,3.2-.6,6.6-.6,10s.6,7,.8,10.4l-.2,10.8.4,11.3-1,20.5,1,11.5,19.5-.4.4-11.3-1-10.6.4-9.6v-11.3l.6-11.1-.6-10.2-.2-10.2c.2-3.6.8-7.2.8-10.8,0-3-.2-6.2-.4-9.2Z"/>
  <path class="cls-1" d="M370.2,51.8c-2.4,0-3.2-.2-4.4-.8-1.4-.6-2.6-1.6-2.6-2.8,0-.6,0-1.4.4-1.8.6-.8,2-1,3.2-1,2.4,0,7.5,1.4,9.1,3l4.2-7.2c-.8-4.6-2.8-9.8-8.2-9.8-8.9,0-14.9,13.1-14.9,20.9,0,3,1.2,5.4,2.2,7.4.2.4.4.8.6,1.2l-5.6,3,1.4,5.4,10.9-1.6,9-.6,8.4-2.2v-14.7c-6.1,1.2-10.5,1.6-13.7,1.6Z"/>
</svg>