<?xml version="1.0" encoding="utf-8"?>
<!-- Generator: Adobe Illustrator 28.1.0, SVG Export Plug-In . SVG Version: 6.00 Build 0)  -->
<svg version="1.1" id="Layer_1" xmlns="http://www.w3.org/2000/svg" xmlns:xlink="http://www.w3.org/1999/xlink" x="0px" y="0px"
	 viewBox="0 0 800 800" style="enable-background:new 0 0 800 800;" xml:space="preserve">
<g>
	<g>
		<g>
			<path d="M591.8,544.7L500,521.8l-3.7-14.8c62.9-11.2,95.5-30.2,97-31.1c4.7-2.8,7.6-7.8,8-13.2c0.4-5.5-2-10.8-6.3-14.3
				c-0.4-0.3-42.8-36.1-42.8-159.3c0-109.1-26.3-164.5-78.3-164.5h-5.5C450.8,107.9,436.2,100,400,100
				c-47.7,0-152.2,47.6-152.2,189.1c0,123.2-42.4,159-42.6,159.1c-4.4,3.3-6.9,8.6-6.7,14.2c0.3,5.6,3.3,10.6,8.1,13.4
				c1.5,0.9,33.8,20,97.1,31.2l-3.7,14.7l-91.8,23c-63.7,15.9-108.2,72.9-108.2,138.6c0,9.2,7.5,16.7,16.7,16.7h566.6
				c9.2,0,16.7-7.5,16.7-16.7C700,617.6,655.5,560.6,591.8,544.7z"/>
		</g>
	</g>
</g>
</svg>
