<?xml version="1.0" encoding="utf-8"?>
<!-- Generator: Adobe Illustrator 28.1.0, SVG Export Plug-In . SVG Version: 6.00 Build 0)  -->
<svg version="1.1" id="Layer_1" xmlns="http://www.w3.org/2000/svg" xmlns:xlink="http://www.w3.org/1999/xlink" x="0px" y="0px"
	 viewBox="0 0 800 800" style="enable-background:new 0 0 800 800;" xml:space="preserve">
<path d="M587.8,528.4l-81.9-20.5l-3.4-13.7c21.3-23.5,36.3-53.4,42.6-84.5c14.6-7.5,25.1-21.8,27.3-39l5.9-47.5
	c1.8-14.4-2.6-28.9-12.2-39.8c-2.9-3.4-6.3-6.3-9.9-8.8l1.4-29l5-5c14.1-14.9,33.1-46.8,3-92.9C551.3,126,521.8,100,462.8,100
	c-17.3,0-56.6,0-94.6,23.9c-112.3,3.9-125.5,64.4-125.5,110.1c0,9,1.6,25.9,3.2,39.9c-4,2.6-7.8,5.7-11,9.4
	c-9.7,11-14.2,25.6-12.3,40l5.9,47.5c2.2,17.8,13.5,32.5,30.2,39.8c6.1,29.7,20.4,58.5,40.3,81.4l-4,16l-81.9,20.5
	c-66.2,16.6-112.6,75.9-112.6,144.3c0,15.1,12.2,27.3,27.3,27.3h545.5c15.1,0,27.3-12.3,27.3-27.3
	C700.4,604.3,654.1,545,587.8,528.4z"/>
</svg>
