<svg width="16" height="16" viewBox="0 0 16 16" fill="none" xmlns="http://www.w3.org/2000/svg">
<path d="M15.4068 1.47751C15.3365 1.20087 15.0965 1 14.8112 1C14.6169 1 14.4433 1.09357 14.3307 1.23901L14.3297 1.24002C13.5235 2.22199 12.4675 2.96088 11.263 3.35448L11.2158 3.3677C10.3993 3.6423 9.44903 3.83808 8.46729 3.9164L8.42499 3.91894C7.2957 3.96674 6.23724 4.22863 5.27026 4.66546L5.32633 4.64257C3.62157 5.59657 2.48342 7.43184 2.48342 9.54121C2.48342 9.57375 2.48392 9.60579 2.48441 9.63783V9.63274C2.48933 9.79445 2.49966 9.95362 2.51785 10.1133C2.58868 10.6976 2.73574 11.2285 2.94921 11.7218L2.93544 11.6862C2.21143 12.6763 1.57891 13.8047 1.08706 15.0099L1.04968 15.1136C1.0182 15.1874 1 15.2733 1 15.3638C1 15.6242 1.15198 15.8485 1.36889 15.9466L1.37282 15.9481C1.44365 15.9807 1.52579 16 1.61236 16H1.61432H1.61481C1.86664 16 2.08355 15.8434 2.17848 15.6186L2.17995 15.6145C2.60442 14.5705 3.08152 13.6755 3.63583 12.8405L3.60337 12.8924C4.16851 13.6801 4.90284 14.3061 5.75276 14.7195L5.78719 14.7348C6.51612 15.0796 7.36899 15.2799 8.26662 15.2799C8.2794 15.2799 8.29219 15.2799 8.30449 15.2799H8.30252C9.26507 15.2759 10.1814 15.0735 11.0161 14.7109L10.9693 14.7287C13.6371 13.4818 15.5342 10.9061 15.8795 7.84019L15.8834 7.80001C15.9577 7.21368 16 6.53582 16 5.84778C16 4.29118 15.7831 2.78645 15.3783 1.36512L15.4058 1.477L15.4068 1.47751ZM14.6681 7.61135C14.3838 10.2659 12.7754 12.4729 10.5498 13.5316L10.5055 13.5504C9.87595 13.8357 9.14211 14.002 8.37089 14.002C7.62229 14.002 6.90911 13.8454 6.25986 13.5626L6.29577 13.5764C5.50684 13.1909 4.86448 12.5995 4.41591 11.8687L4.40509 11.8499C6.05476 10.0726 8.34679 8.94369 10.8941 8.86385L10.9084 8.86334C11.2212 8.8308 11.4637 8.56026 11.4637 8.23073C11.4637 7.87985 11.1882 7.59508 10.8488 7.59508C10.8277 7.59508 10.807 7.59609 10.7869 7.59813H10.7893C8.09791 7.71306 5.67849 8.83283 3.85569 10.6015L3.86159 10.5959C3.81142 10.4194 3.76912 10.2064 3.74256 9.98769L3.7406 9.96634C3.72732 9.84429 3.71846 9.72122 3.71551 9.59867C3.71502 9.57426 3.71453 9.54528 3.71453 9.51629C3.71453 7.90935 4.57871 6.51141 5.8531 5.79133L5.87474 5.78015C6.6617 5.43486 7.57458 5.21873 8.53172 5.18314L8.545 5.18263C9.67036 5.09262 10.7136 4.87548 11.7071 4.5429L11.6112 4.57087C12.712 4.19456 13.6627 3.63111 14.4787 2.90952L14.4674 2.91969C14.6661 3.80198 14.7797 4.81496 14.7797 5.85541C14.7797 6.47378 14.7394 7.08299 14.6617 7.67949L14.669 7.60982L14.6681 7.61135Z" fill="#6D8323"/>
</svg>
