<?xml version="1.0" encoding="utf-8"?>
<!-- Generator: Adobe Illustrator 28.1.0, SVG Export Plug-In . SVG Version: 6.00 Build 0)  -->
<svg version="1.1" id="Layer_1" xmlns="http://www.w3.org/2000/svg" xmlns:xlink="http://www.w3.org/1999/xlink" x="0px" y="0px"
	 viewBox="0 0 432.4 471.8" style="enable-background:new 0 0 432.4 471.8;" xml:space="preserve">
<style type="text/css">
	.st0{fill:#262626;}
</style>
<g>
	<g>
		<path class="st0" d="M329.3,336.6c-3.7-2.4-8.4-4.6-12.6-5.8c-2.7-0.5-5.2-0.8-7.9-0.8c-2.5,0.1-6.5,0.5-8.8,1.4
			c-3.4,0.7-6.6,2-9.7,3.4c-2.4,1.8-10.2,10.9-11.9,13.6c-0.5,1.3-2.8,6.8-3.4,8.1l-3.6,5.9c-0.2,0-0.2,0-0.4,0
			c-2.1-0.7-3.6-1.3-4.7-1.9c-0.8-0.5-1.7-0.8-2.3-1.4c-0.4-0.5-0.8-0.8-0.9-1.3c-1.4-2-1.4-4.5-1.4-7.2v-2.1v-0.2h-14.6l-0.1,10.1
			c-4.7,1.8-9.4,3.1-14.1,4.4v0.1c-14.2,4.4-24.4,4.9-39.5,4.9c-6.4,0-27.3-2-33-4.9v-0.2c-4.9-2.3-7.7-3.7-10.8-5.9l-0.4-7l0.6-8.5
			l-0.5-16.8l0.5-8.5l-0.5-9l0.1-7.9l-15.2-0.8l-0.2,0.4l-0.4,8.5l0.8,17.3v9.5l-0.6,8.5v8.8l0.4,8.4l0.1,9.5l-0.6,7.9
			c-1.5,2-5,3.4-8.5,4.4c-3.2,0.8-7,0.8-10.7,1.3c-4.4-0.2-8.1-1.3-11.1-3.4c-1.8-1.8-3.3-4.7-3.4-9.5l1.8-8.8l1.3-8.4L90.3,350
			c-0.5,1.9-1.2,3.6-1.8,6.3c-0.7,3.4-1.9,5.7-2.4,9.2c-0.5,3.4,0,7-0.4,9.7c-0.5,3.8,0.4,6.4,1.2,10.3c0.9,2.7,1.8,5.3,3.1,7.6
			c4,7.1,14.7,10.5,22.3,10.5c5.5,0,15.6-4,20-7.2c2.7-2.1,5.3-4.5,7.5-7.1c3-2.3,3.9-5.1,5.3-8.1c0.6-1.3,1.3-2.4,1.9-3.6
			c0.6,0.6,1.4,1.2,2.4,1.8v0.1c9.4,6.9,30,8.3,42,8.3c17.1,0,40.1-3.2,54.4-13.3v-0.1c1.4-0.9,2.5-3.1,3.1-5.7
			c1.7,2.4,2.7,4.9,4.4,6.5c2.5,2.4,4.3,4,7.5,5.3c1.2,0.6,2.5,1.1,3.9,1.4c1.4,0.6,3,0.8,4.4,1.2c2.6,0.2,5.3,0.7,7.6,0.8h13.3
			c3.8,0,7.2-0.5,10.3-0.9c4.5-0.1,8.8-0.6,12.9-2.4c4.9-1.4,10.1-3.1,14.2-6.2c4-2,7-7.8,8.8-11.9c1.2-2.6,1.2-5.6,1.7-8.3
			C337.3,347.7,336.3,340,329.3,336.6z M320.9,359.9c-3,0.5-5.3,1.8-10.2,2.3c-4,0.5-8.5,0.5-15.1,0.8h-0.9c-2.7,0-5.7-0.1-8.4-0.1
			l-1.3,0.1c1.1-1.4,2-2.7,3-4.1l0.9-1.9c0.8-1.7,1.7-3.2,2.8-5.5c3.1-0.8,6.5-1.1,9.2-1.4c2.1-0.1,3.7-0.4,4.9-0.5
			c4.6,0.7,9,1.2,12.1,3.1c3.2,1.3,5.3,3.1,7.7,5.5C324.1,359,322.6,359.4,320.9,359.9z"/>
		<path class="st0" d="M356.1,288.3c-1.9,0-2.6-0.1-3.6-0.6c-1.2-0.5-2.1-1.3-2.1-2.3c0-0.5,0-1.1,0.4-1.4c0.5-0.7,1.7-0.8,2.6-0.8
			c1.9,0,5.9,1.2,7.2,2.5l3.4-5.8c-0.7-3.8-2.3-7.9-6.6-7.9c-7.1,0-12,10.5-12,16.8c0,2.4,0.9,4.3,1.8,5.9c0.1,0.4,0.4,0.6,0.5,0.9
			l-4.5,2.4l1.2,4.4l8.8-1.3l7.2-0.5l6.8-1.8V287C362.2,288,358.7,288.3,356.1,288.3z"/>
		<path class="st0" d="M364.4,308.1h-15.6l-0.4,7.6v8.8c-0.1,2.6-0.5,5.3-0.5,8.1s0.5,5.7,0.6,8.4l-0.1,8.8l0.4,9l-0.8,16.5l0.8,9.2
			l15.6-0.4l0.4-9l-0.8-8.5l0.4-7.7v-9l0.5-8.9l-0.5-8.3l-0.1-8.3c0.1-3,0.6-5.8,0.6-8.8C364.7,313.1,364.5,310.5,364.4,308.1z"/>
	</g>
	
		<image style="overflow:visible;enable-background:new    ;" width="1024" height="1024" xlink:href="v2.png"  transform="matrix(0.3372 0 0 0.3372 26.0937 49.5753)">
	</image>
</g>
</svg>
