<svg width="18" height="24" viewBox="0 0 18 24" fill="none" xmlns="http://www.w3.org/2000/svg">
<path d="M18 8.7C18 3.903 13.9624 0 9 0C4.03759 0 0 3.903 0 8.7C0 13.1245 3.43448 16.7885 7.86207 17.3305V18.9H6C5.6982 18.9 5.40876 19.0159 5.19536 19.2222C4.98196 19.4285 4.86207 19.7083 4.86207 20C4.86207 20.2917 4.98196 20.5715 5.19536 20.7778C5.40876 20.9841 5.6982 21.1 6 21.1H7.86207V22.9C7.86207 23.1917 7.98196 23.4715 8.19536 23.6778C8.40876 23.8841 8.6982 24 9 24C9.3018 24 9.59124 23.8841 9.80464 23.6778C10.018 23.4715 10.1379 23.1917 10.1379 22.9V21.1H12C12.3018 21.1 12.5912 20.9841 12.8046 20.7778C13.018 20.5715 13.1379 20.2917 13.1379 20C13.1379 19.7083 13.018 19.4285 12.8046 19.2222C12.5912 19.0159 12.3018 18.9 12 18.9H10.1379V17.3305C14.5655 16.7885 18 13.1245 18 8.7ZM2.27586 8.7C2.27586 5.116 5.29241 2.2 9 2.2C12.7076 2.2 15.7241 5.116 15.7241 8.7C15.7241 12.284 12.7076 15.2 9 15.2C5.29241 15.2 2.27586 12.284 2.27586 8.7Z" fill="#303030"/>
</svg>
