<svg width="20" height="20" viewBox="0 0 20 20" fill="none" xmlns="http://www.w3.org/2000/svg">
<path d="M10 1C5.02966 1 1 5.02966 1 10C1 14.9703 5.02966 19 10 19C14.9703 19 19 14.9703 19 10C19 5.02966 14.9703 1 10 1Z" stroke="#ABBC3F" stroke-miterlimit="10"/>
<path d="M10.0001 1C7.4875 1 5.125 5.02966 5.125 10C5.125 14.9703 7.4875 19 10.0001 19C12.5128 19 14.8753 14.9703 14.8753 10C14.8753 5.02966 12.5128 1 10.0001 1Z" stroke="#ABBC3F" stroke-miterlimit="10"/>
<path d="M4 4C5.65462 5.17476 7.7376 5.87529 10.0001 5.87529C12.2627 5.87529 14.3457 5.17476 16.0003 4M16.0003 16.0003C14.3457 14.8255 12.2627 14.125 10.0001 14.125C7.7376 14.125 5.65462 14.8255 4 16.0003" stroke="#ABBC3F" stroke-linecap="round" stroke-linejoin="round"/>
<path d="M10 1V19M19 10H1" stroke="#ABBC3F" stroke-miterlimit="10"/>
</svg>
