<svg width="16" height="16" viewBox="0 0 16 16" fill="none" xmlns="http://www.w3.org/2000/svg">
<g clip-path="url(#clip0_402_13166)">
<path d="M4.66512 9.82155L1.79418 11.1098C1.18319 11.3875 1.18319 11.8423 1.79418 12.12L6.93202 14.4633C7.51835 14.7303 8.48343 14.7303 9.06977 14.4633L14.2076 12.12C14.8186 11.8423 14.8186 11.3875 14.2076 11.1098L11.4325 9.77434M14.2048 3.88978L9.01978 1.52568C8.45774 1.26878 7.53779 1.26878 6.97576 1.52568L1.79418 3.88978C1.18319 4.1675 1.18319 4.62192 1.79418 4.89964L6.93202 7.24291C7.51835 7.51022 8.48343 7.51022 9.06977 7.24291L14.2076 4.89964C14.8158 4.62192 14.8158 4.16715 14.2048 3.88978Z" stroke="#303030" stroke-width="1.25" stroke-linecap="round" stroke-linejoin="round"/>
<path d="M4.66664 6.20996L1.79222 7.49998C1.18124 7.7777 1.18124 8.23246 1.79222 8.51019L6.93006 10.8531C7.5164 11.1204 8.48148 11.1204 9.06782 10.8531L14.2057 8.51019C14.8201 8.23246 14.8201 7.7777 14.2091 7.49998L11.3319 6.20996" stroke="#303030" stroke-width="1.25" stroke-linecap="round" stroke-linejoin="round"/>
</g>
<defs>
<clipPath id="clip0_402_13166">
<rect width="16" height="16" fill="white"/>
</clipPath>
</defs>
</svg>
