<svg width="20" height="20" viewBox="0 0 20 20" fill="none" xmlns="http://www.w3.org/2000/svg">
<path d="M18.9421 0H14.6143C14.3337 0 14.0646 0.111478 13.8662 0.30991C13.6678 0.508342 13.5564 0.777474 13.5564 1.0581C13.5564 1.33872 13.6678 1.60786 13.8662 1.80629C14.0646 2.00472 14.3337 2.1162 14.6143 2.1162H16.3882L13.4842 5.02068C10.2052 2.47836 5.45376 2.7121 2.44641 5.72143C-0.815791 8.9847 -0.815791 14.2935 2.44834 17.5548C4.01864 19.1207 6.14559 20 8.36301 20C10.5804 20 12.7074 19.1207 14.2777 17.5548C17.2865 14.545 17.5202 9.79463 14.9783 6.515L17.8842 3.61245V5.38669C17.8842 5.66731 17.9956 5.93644 18.194 6.13487C18.3924 6.33331 18.6615 6.44478 18.9421 6.44478C19.2227 6.44478 19.4917 6.33331 19.6901 6.13487C19.8885 5.93644 20 5.66731 20 5.38669V1.0581C20 0.919147 19.9726 0.781556 19.9195 0.653182C19.8663 0.524808 19.7884 0.408164 19.6901 0.30991C19.5919 0.211656 19.4753 0.133718 19.3469 0.0805431C19.2186 0.0273686 19.081 0 18.9421 0ZM12.7831 16.06C11.61 17.2309 10.0203 17.8885 8.36301 17.8885C6.70566 17.8885 5.11601 17.2309 3.94287 16.06C1.50536 13.6225 1.50536 9.65563 3.94287 7.21816C6.38039 4.78068 10.3461 4.7802 12.7831 7.21816C15.2202 9.65612 15.2207 13.6225 12.7831 16.06Z" fill="#303030"/>
</svg>
