<svg width="16" height="16" viewBox="0 0 16 16" fill="none" xmlns="http://www.w3.org/2000/svg">
<g clip-path="url(#clip0_402_13152)">
<path d="M25 8.89457L23.9434 7.95797C23.9434 7.95797 22.9177 9.02207 21.5636 10.1205C20.1993 11.214 18.4555 12.283 17.3989 12.3713C15.5576 12.538 13.3419 12.2634 11.4442 11.5426C9.55165 10.8315 7.99758 9.68897 7.28466 8.18844C7.07437 7.75201 7.34107 6.50158 7.85397 5.43257C8.09503 4.9275 8.35148 4.47636 8.56176 4.1282C8.86437 4.28021 9.21314 4.46655 9.59781 4.67741C10.639 5.26095 11.834 6.05534 12.3315 6.62907C12.7008 7.05079 13.1829 8.05604 13.5112 8.90438C13.8394 9.76252 14.0497 10.4736 14.0497 10.4736L15.4448 10.1058C15.4448 10.1058 15.2191 9.34081 14.8704 8.42872C14.6447 7.82557 14.3728 7.16357 14.0292 6.57513C14.3575 6.531 14.7883 6.531 15.2858 6.61927C16.2654 6.8056 17.4348 7.27145 18.4093 7.95797L19.2607 6.83993C18.0965 6.03573 16.7783 5.49142 15.5576 5.27075C15.1012 5.18739 14.6498 5.13345 14.219 5.14816C13.8087 5.15797 13.424 5.22662 13.0804 5.36392C12.3213 4.65289 11.2698 4.01541 10.3415 3.48581C10.28 3.44658 10.2133 3.41716 10.1517 3.37794L10.1722 2H6.09987C6.11526 2.22067 6.12039 2.44133 6.09987 2.65709C6.07423 2.88266 5.99729 3.37794 5.99729 3.37794C5.9101 3.93695 5.77162 4.73625 5.55621 5.58459C5.15615 7.193 4.40219 8.96322 3.61747 9.54676C2.61732 10.2823 1.22738 10.3264 -0.357458 10.1499C-0.660066 9.96357 -1.52686 9.41436 -2.368 8.70333C-2.88089 8.2718 -3.36301 7.78144 -3.65024 7.35482C-3.93746 6.91839 -3.99387 6.60455 -3.93233 6.4035C-3.94258 6.44764 -4.54267 6.22697 -5.29662 5.97688C-5.5582 6.72715 -5.27611 7.47251 -4.87092 8.09037C-4.47599 8.69352 -3.91694 9.23783 -3.34763 9.71348C-4.43496 9.56637 -5.55307 9.47811 -6.60963 9.63503C-6.89172 9.10543 -7.24562 8.54641 -7.82519 8.09527C-8.53811 7.53625 -9.55877 7.193 -10.9692 7.15867L-11 8.5366C-9.81009 8.56112 -9.1741 8.82102 -8.73814 9.16428C-8.44066 9.39475 -8.22012 9.69387 -8.01496 10.0371C-8.29192 10.1695 -8.56376 10.3215 -8.82533 10.503C-9.67673 11.1061 -9.9896 12.1065 -10.2409 12.9695C-10.4922 13.8277 -10.5948 14.5779 -10.5948 14.5779L-9.16384 14.7643C-9.16384 14.7643 -9.07152 14.0974 -8.84585 13.3373C-8.65608 12.6018 -8.22525 11.7926 -7.98931 11.621C-6.63015 10.655 -4.57344 10.9247 -2.29107 11.2827C-0.0138197 11.6406 2.51988 12.0771 4.474 10.6403C5.11512 10.1646 5.58698 9.49772 5.96652 8.75727C6.35119 9.56147 6.90512 10.2578 7.56675 10.8658C6.71021 11.0718 5.96652 11.4396 5.31515 11.8858C4.2432 12.6312 3.39179 13.5482 2.525 14.2984L3.48924 15.3233C4.13036 14.7643 4.71506 14.1905 5.29976 13.6855C5.62801 14.2445 6.09474 14.6907 6.61277 15.0095C7.44366 15.5292 8.39251 15.7989 9.2593 16L9.59781 14.6662C8.79769 14.475 7.99758 14.2298 7.40775 13.862C6.96666 13.5874 6.63841 13.2736 6.44351 12.8224C7.25388 12.3222 8.11042 12.028 9.27981 12.0869C9.80297 12.3713 10.3466 12.6214 10.9057 12.8371C13.0393 13.6413 15.4243 13.9405 17.5169 13.759C18.8299 13.6364 20.1429 12.9156 21.3174 12.0722C21.8457 12.4792 22.2817 12.9695 22.574 13.4501C22.9997 14.1415 23.0972 14.8084 22.9997 15.1075L24.364 15.5391C24.682 14.6417 24.3794 13.6609 23.8203 12.7489C23.4767 12.1997 23.0254 11.6701 22.4766 11.1944C22.4868 11.1944 22.4868 11.1846 22.492 11.1846C23.9332 10.0224 25 8.89457 25 8.89457Z" fill="#936233"/>
</g>
<defs>
<clipPath id="clip0_402_13152">
<rect width="16" height="16" fill="white"/>
</clipPath>
</defs>
</svg>
