<svg width="16" height="16" viewBox="0 0 16 16" fill="none" xmlns="http://www.w3.org/2000/svg">
<g clip-path="url(#clip0_402_13156)">
<path d="M8.74025 8.93329C10.8149 7.26117 12 4.80958 12 2.15424C12 -0.627249 10.7033 -3.18233 8.44481 -4.85446C8.18219 -5.04851 7.81781 -5.04851 7.55519 -4.85446C5.29339 -3.18233 4 -0.627249 4 2.15424C4 4.80958 5.18178 7.26117 7.25974 8.93329V26.2691C7.25974 26.6733 7.5913 27 8.00164 27C8.41198 27 8.74354 26.6733 8.74354 26.2691V8.93329H8.74025ZM7.99836 7.63635C6.39311 6.24884 5.48051 4.28239 5.48051 2.15424C5.48051 0.0260768 6.38982 -1.9436 7.99836 -3.33111C9.60361 -1.9436 10.5162 0.0260768 10.5162 2.15424C10.5162 4.28239 9.60361 6.24884 7.99836 7.63635Z" fill="#D78C1D"/>
<path d="M8 16L8 9" stroke="#D78C1D" stroke-width="2" stroke-linecap="square"/>
</g>
<defs>
<clipPath id="clip0_402_13156">
<rect width="16" height="16" fill="white"/>
</clipPath>
</defs>
</svg>
