<?xml version="1.0" encoding="UTF-8"?>
<svg id="Layer_1" data-name="Layer 1" xmlns="http://www.w3.org/2000/svg" viewBox="0 0 200 200">
  <defs>
    <style>
      .cls-1 {
        fill: none;
        stroke: #e99659;
        stroke-linecap: round;
        stroke-linejoin: round;
        stroke-width: 2.5px;
      }

      .cls-2 {
        fill: #ea965a;
        stroke-width: 0px;
      }
    </style>
  </defs>
  <g>
    <polygon class="cls-1" points="106.5 127.21 114.01 142.76 113.31 113.1 106.5 127.21"/>
    <polygon class="cls-1" points="96.27 106.02 103.83 121.68 111.39 106.02 103.83 88.1 96.27 106.02"/>
    <polygon class="cls-1" points="94.13 152.84 103.83 172.94 113.54 152.84 103.83 132.74 94.13 152.84"/>
    <polygon class="cls-1" points="93.59 142.89 101.16 127.21 94.35 113.1 93.59 142.89"/>
    <polygon class="cls-1" points="106.5 178.27 114.01 193.82 113.31 164.17 106.5 178.27"/>
    <polygon class="cls-1" points="93.59 193.95 101.16 178.27 94.35 164.16 93.59 193.95"/>
  </g>
  <path class="cls-2" d="M174.73,90.08c-.29-.7-7.34-17.14-24.76-23.22-2.79-.97-5.69-1.6-8.67-1.93,12.56-3.06,23.93-4.28,24.07-4.3.59-.06,1.08-.48,1.23-1.06.15-.57-.08-1.18-.56-1.52-10.66-7.44-20.43-9.44-28.89-8.6,0,0,0,0,0,0-.26-.04-.52,0-.75.08-3.46.42-6.7,1.3-9.68,2.48-.34.01-.65.15-.89.36-1.46.62-2.85,1.31-4.18,2.03,4.98-5.11,13.88-12.2,28.49-17.95.54-.21.9-.74.9-1.32,0-.58-.35-1.11-.9-1.32-.22-.09-15.71-6-29.64,3.15-.18.07-.34.18-.47.31-1.94,1.32-3.84,2.95-5.66,4.93-.09.08-.17.17-.24.27-.44.49-.88,1-1.31,1.54,4.02-22.49-7.57-39.29-8.13-40.08-.26-.37-.69-.59-1.14-.6-.45,0-.89.21-1.16.57-.14.19-12.71,17.43-8.44,39.75-.34-.41-.68-.8-1.02-1.18-.07-.1-.15-.19-.25-.27-1.82-1.97-3.72-3.6-5.66-4.92-.13-.13-.29-.24-.47-.31-13.93-9.15-29.42-3.24-29.64-3.15-.54.22-.9.74-.9,1.32,0,.58.36,1.11.9,1.32,14.61,5.75,23.51,12.84,28.49,17.95-1.33-.73-2.72-1.42-4.18-2.04-.24-.22-.55-.35-.89-.36-2.98-1.18-6.21-2.07-9.67-2.48-.23-.09-.49-.13-.76-.08,0,0,0,0,0,0-8.46-.84-18.23,1.17-28.89,8.6-.49.34-.71.95-.56,1.52.15.57.64,1,1.23,1.06.14.02,11.51,1.24,24.07,4.3-2.98.32-5.88.95-8.67,1.93-17.42,6.08-24.47,22.52-24.76,23.22-.23.55-.09,1.19.35,1.6.27.25.61.37.96.37.22,0,.45-.05.66-.16,17.3-9.05,32.49-10.35,41.18-10.12-2.09.71-4.09,1.51-5.97,2.44-.01,0-.03.01-.04.02-5.12,2.51-9.5,5.81-13.07,9.9-13.53,15.5-10.82,36.43-10.69,37.32.08.61.55,1.09,1.15,1.2.09.02.17.02.26.02.51,0,.99-.28,1.25-.74,16.09-29.48,53.84-46.64,55.46-46.71s38.39,16.44,54.91,46.71c.25.46.73.74,1.25.74.08,0,.17,0,.26-.02.6-.11,1.07-.6,1.15-1.2.12-.88,2.84-21.82-10.69-37.32-3.58-4.1-7.95-7.39-13.07-9.9-.01,0-.03-.01-.04-.02-1.89-.92-3.88-1.73-5.97-2.44,8.68-.23,23.88,1.07,41.18,10.12.21.11.43.16.66.16.35,0,.69-.13.96-.37.44-.4.58-1.04.35-1.6ZM161.2,58.3c-2.33.32-5.56.81-9.3,1.49.02-.24,0-.48-.11-.72-.1-.22-1.87-3.86-6.56-6.7,5.29.73,10.62,2.69,15.97,5.92ZM136.78,52.28c9.24,1.61,12.31,7.72,12.44,8.01,0,0,0,0,0,0-2.66.52-5.5,1.13-8.41,1.83-1.16-2.07-4.18-6.65-9.05-8.88,1.67-.45,3.34-.78,5.01-.97ZM123.14,56.73c1.28-.7,2.57-1.3,3.86-1.84,5.61.5,9.36,5.41,10.94,7.96-2.44.64-4.9,1.35-7.32,2.13-.83-1.65-3.42-6.16-7.62-8.17.05-.03.09-.05.14-.08ZM127.71,65.58c-.9.17-1.82.37-2.74.59-.07.01-.14.03-.2.05-1.25.31-2.51.64-3.78,1.04-.75-1.68-2.33-4.51-4.84-5.86,1.12-.89,2.33-1.78,3.63-2.64,3.98.61,6.77,4.75,7.93,6.82ZM115.95,69.08c-.07.02-.14.05-.21.08-2.63,1.06-11.93,6.68-11.93,6.68,0,0-9.73-5.57-12.44-6.66-.08-.04-.17-.07-.26-.1-.78-.31-1.56-.61-2.34-.89.77-1.64,2.37-4.32,4.63-4.68,3.86,3.48,9.67,8.17,10.41,8.15s6.81-5.41,9.85-8.15c2.26.35,3.86,3.02,4.63,4.67-.77.28-1.55.58-2.34.9ZM121.5,79.33l-17.7.38-18.25-.38s2.84-6.29,5.16-7.35c2.77,1.14,13.09,6.3,13.09,6.3,0,0,9.76-5.16,12.54-6.3,2.31,1.06,5.16,7.35,5.16,7.35ZM98.3,56.41c.92,1.35,4.94,7.25,5.5,7.15s4.71-6.61,4.95-7.15c2.82-.91,5.49.58,5.54.61.21.12-.38,2.33-.51,2.73-.42.34-.84.69-1.23,1.03-.21.1-.38.26-.52.46-4.4,3.88-7.05,7.12-8.23,7.21-1.18.09-4.31-3.26-8.78-7.21-.14-.19-.31-.36-.53-.46-.43-.37-.89-.75-1.35-1.13-.48-.53-1.88-2-1.01-2-.55,0,3.33-2.15,6.17-1.24ZM96.68,42.84c.27.06.55.07.82-.03.06-.02,6.36-2.4,12-.02.18.08.37.11.55.11.02,0,.03,0,.05,0-.45,2.8-1.15,5.68-2.17,8.63-.54,1.03-1.06,2.09-1.56,3.22,0,.01-.01.03-.02.04-.32.72-2.39,5.66-2.55,5.64s-2.78-4.92-3.1-5.64c0-.02-.01-.03-.02-.05-.46-1.03-.94-2.01-1.42-2.95,0-.01,0-.03-.01-.04-1.2-3.04-2.03-6.02-2.56-8.92ZM145.34,35.38c-2,.87-3.86,1.76-5.64,2.66-1.35-.71-4.75-2.22-9.51-2.45,6.03-1.63,11.63-.99,15.15-.21ZM121.58,39.61c6.61-2.14,12.01-.93,14.92.14-2.23,1.24-4.26,2.5-6.11,3.74-1.28-1.01-4.75-3.15-10.53-2.59.57-.46,1.14-.88,1.72-1.28ZM116.05,44.56c6.32-1.93,10.19-.38,11.87.66-1.61,1.18-3.07,2.34-4.37,3.45-.03-.03-.05-.06-.09-.09-.19-.12-3.9-2.48-9.4-1.57.65-.87,1.31-1.7,1.98-2.46ZM121.35,50.67c-2.13,2.01-4.49,4.83-4.99,4.53-.13-.08-3.12-2.06-6.14-1.91.02-.04.04-.07.06-.1.1-.13.19-.27.25-.43.01-.04.02-.07.04-.11.37-.69.74-1.37,1.13-2.02,4.73-1.85,8.32-.6,9.66.05ZM103.49,7.41c.92,1.61,2.29,4.23,3.58,7.64-3.05-.76-5.63-.43-7.38.04,1.37-3.43,2.82-6.07,3.8-7.67ZM98.43,18.58c.08-.03.17-.06.25-.1.04-.02,4.1-2.28,9.56-.06.86,2.75,1.6,5.86,2.05,9.27-4.86-1.37-10.95-.52-13.96.07.45-3.36,1.21-6.44,2.09-9.17ZM96.03,30.72c2.44-.53,9.81-1.86,14.59.06.22,2.95.21,6.07-.13,9.34-6.68-2.76-13.71-.08-14.01.03-.08.03-.13.09-.2.13-.43-3.35-.47-6.55-.25-9.57ZM95.37,50.62c.5.85.99,1.73,1.47,2.66-3.03-.15-6.27,2.14-6.2,2.69-1.18-1.47-2.8-3.29-4.93-5.31,1.34-.64,4.93-1.89,9.66-.05ZM61.71,35.38c3.52-.78,9.11-1.42,15.15.21-4.77.23-8.16,1.74-9.51,2.45-1.77-.9-3.64-1.79-5.64-2.66ZM70.54,39.75c2.89-1.08,8.27-2.29,14.93-.13.58.4,1.15.82,1.72,1.28-5.78-.55-9.25,1.59-10.52,2.59-1.85-1.24-3.89-2.5-6.12-3.75ZM83.58,48.59s-.05.06-.09.09c-1.3-1.12-2.75-2.27-4.37-3.45,1.68-1.04,5.55-2.59,11.87-.66.67.76,1.34,1.58,1.98,2.46-5.5-.91-9.21,1.45-9.4,1.57ZM87.27,58.76c1.3.86,2.51,1.75,3.63,2.64-2.53,1.36-4.1,4.2-4.85,5.88-1.26-.4-2.52-.76-3.75-1.06-.08-.03-.16-.05-.24-.06-.91-.22-1.82-.41-2.71-.58,1.16-2.07,3.95-6.21,7.93-6.83ZM83.82,56.69c.08.04.14.08.22.13-4.2,2.01-6.79,6.52-7.62,8.17-2.41-.78-4.88-1.49-7.32-2.13,1.57-2.55,5.31-7.46,10.94-7.96,1.26.53,2.52,1.11,3.78,1.79ZM55.15,59.79c-3.74-.68-6.97-1.17-9.3-1.49,5.34-3.23,10.67-5.19,15.97-5.92-4.69,2.83-6.46,6.48-6.56,6.7-.11.23-.13.48-.11.72ZM57.82,60.3s0,0,0,0c.13-.26,3.18-6.4,12.44-8.01,1.68.19,3.35.52,5.02.97-4.88,2.23-7.89,6.81-9.05,8.88-2.91-.71-5.75-1.31-8.41-1.83ZM36.95,87.4c2.38-3.93,6.95-10.11,14.13-14.53-4.2,5.17-4.73,10.35-4.76,10.66,0,.02,0,.04,0,.06-3.02,1.04-6.15,2.3-9.38,3.81ZM49.37,82.6c.62-2.72,2.95-9.56,11.29-13.77.06-.03.1-.08.15-.12,2.13-.55,4.31-.92,6.56-1.09-5.69,4.34-8.29,10.7-9.01,12.73-2.83.55-5.84,1.29-9,2.25ZM71.3,78.88c-2.83.09-6.07.35-9.63.9,1.41-3.22,4.86-9.41,11.32-12.15,1.61.1,3.24.29,4.9.58-3.95,3.19-5.91,8.46-6.58,10.68ZM74.3,78.85c.96-2.76,3.32-8.06,7.64-9.79,1.83.46,3.68,1.02,5.57,1.69-2.69,2.45-4.33,6.6-5.03,8.73-1.53-.25-4.34-.6-8.17-.64ZM52.12,120.7c-1.33,1.83-2.63,3.73-3.86,5.72-.01-4.98.68-13.29,4.45-21.4-1.84,7.62-.94,13.83-.59,15.68ZM54.57,117.5c-.4-4.86-.15-14.7,6.49-24.11,1.46-1.37,3.02-2.63,4.7-3.77-4.46,8.67-3.06,16.64-2.64,18.5-2.93,2.82-5.81,5.94-8.56,9.38ZM65.62,105.79c-.43-3.6-.5-11.55,5.43-19.18,1.84-.88,3.78-1.65,5.82-2.32-3.86,6.85-2.99,13.49-2.81,14.62-2.76,2.03-5.61,4.32-8.45,6.87ZM76.74,97.02c-.14-2.7.16-8.56,4.35-13.93,1.39-.34,2.83-.63,4.31-.88-1.48,2.31-3.17,6.04-3.36,11.16,0,.06.02.12.03.18-1.71,1.04-3.49,2.2-5.33,3.47ZM103.78,83.27c-1.55,0-11.92,4.35-18.77,8.55.7-6.01,3.33-9.06,3.98-9.75,4.57-.47,14.81-1.64,14.81-1.64,0,0,11.67,1.47,14.4,1.78.66.67,3.21,3.6,3.86,9.78-7.58-4.31-16.73-8.73-18.28-8.72ZM130.31,97.15c-1.85-1.27-3.64-2.42-5.35-3.46.02-.1.06-.2.05-.32-.19-5.11-1.88-8.85-3.36-11.16,1.48.25,2.92.54,4.31.88,4.26,5.45,4.5,11.41,4.35,14.05ZM158.79,126.42c-1.23-1.99-2.53-3.89-3.86-5.71.35-1.83,1.26-8.05-.59-15.68,3.77,8.11,4.46,16.41,4.45,21.4ZM145.99,93.39c6.62,9.39,6.88,19.26,6.48,24.12-2.75-3.42-5.63-6.53-8.56-9.34.4-1.75,1.88-9.79-2.62-18.55,1.69,1.14,3.25,2.4,4.7,3.77ZM136,86.61c5.94,7.64,5.85,15.67,5.42,19.24-2.84-2.54-5.68-4.82-8.45-6.83.12-.64,1.25-7.56-2.79-14.73,2.04.67,3.98,1.44,5.82,2.32ZM124.58,79.49c-.71-2.13-2.35-6.28-5.04-8.73,1.89-.67,3.74-1.23,5.57-1.69,4.31,1.72,6.67,7.02,7.64,9.79-3.83.05-6.64.39-8.17.64ZM135.75,78.88c-.68-2.22-2.63-7.49-6.58-10.68,1.66-.28,3.29-.47,4.9-.58,6.46,2.74,9.91,8.94,11.32,12.15-3.57-.55-6.81-.81-9.63-.9ZM148.68,80.35c-.71-2.03-3.31-8.39-9.01-12.73,2.25.16,4.43.53,6.56,1.09.05.04.09.09.15.12,8.39,4.24,10.7,11.05,11.3,13.78-3.16-.97-6.17-1.71-9.01-2.26ZM160.72,83.59s0-.04,0-.06c-.03-.31-.56-5.49-4.75-10.65,7.16,4.42,11.73,10.59,14.12,14.52-3.22-1.51-6.35-2.76-9.37-3.8Z"/>
</svg>